<?xml version="1.0" standalone="no"?>
<!DOCTYPE svg PUBLIC "-//W3C//DTD SVG 20010904//EN"
 "http://www.w3.org/TR/2001/REC-SVG-20010904/DTD/svg10.dtd">
<svg version="1.0" xmlns="http://www.w3.org/2000/svg"
 width="260.000000pt" height="260.000000pt" viewBox="0 0 260.000000 260.000000"
 preserveAspectRatio="xMidYMid meet">
<metadata>
Created by potrace 1.11, written by Peter Selinger 2001-2013
</metadata>
<g transform="translate(0.000000,260.000000) scale(0.100000,-0.100000)"
fill="#000000" stroke="none">
<path d="M162 2583 c-23 -8 -62 -34 -86 -59 -81 -80 -76 -2 -76 -1218 0 -1225
-5 -1153 77 -1232 81 -79 9 -75 1244 -72 l1094 3 49 25 c27 14 61 40 77 59 62
75 59 21 59 1206 0 1171 2 1137 -54 1209 -14 19 -47 47 -73 62 l-48 29 -1110
2 c-970 1 -1115 0 -1153 -14z"/>
</g>
</svg>
